<mxfile host="app.diagrams.net" modified="2023-09-02T14:16:17.373Z" agent="Mozilla/5.0 (Windows NT 10.0; Win64; x64) AppleWebKit/537.36 (KHTML, like Gecko) Chrome/116.0.0.0 Safari/537.36 Edg/116.0.1938.62" etag="ZIvsqNTk_W9W76BvlR-A" version="21.6.9" type="github">
  <diagram name="第 1 页" id="4GFFBn_61tpP-las6Rn7">
    <mxGraphModel dx="543" dy="858" grid="1" gridSize="10" guides="1" tooltips="1" connect="1" arrows="1" fold="1" page="1" pageScale="1" pageWidth="827" pageHeight="1169" math="0" shadow="0">
      <root>
        <mxCell id="0" />
        <mxCell id="1" parent="0" />
        <mxCell id="hF7e7zSdiV1eWku3Py9b-1" value="patrons" style="shape=umlActor;verticalLabelPosition=bottom;verticalAlign=top;html=1;outlineConnect=0;" vertex="1" parent="1">
          <mxGeometry x="250" y="240" width="30" height="60" as="geometry" />
        </mxCell>
        <mxCell id="hF7e7zSdiV1eWku3Py9b-9" value="" style="rounded=0;orthogonalLoop=1;jettySize=auto;html=1;entryX=0;entryY=1;entryDx=0;entryDy=0;entryPerimeter=0;endArrow=block;endFill=0;" edge="1" parent="1" source="hF7e7zSdiV1eWku3Py9b-4" target="hF7e7zSdiV1eWku3Py9b-1">
          <mxGeometry relative="1" as="geometry">
            <mxPoint x="210" y="420" as="targetPoint" />
          </mxGeometry>
        </mxCell>
        <mxCell id="hF7e7zSdiV1eWku3Py9b-4" value="faculty patrons" style="shape=umlActor;verticalLabelPosition=bottom;verticalAlign=top;html=1;outlineConnect=0;" vertex="1" parent="1">
          <mxGeometry x="120" y="390" width="30" height="60" as="geometry" />
        </mxCell>
        <mxCell id="hF7e7zSdiV1eWku3Py9b-5" value="graduate patrons" style="shape=umlActor;verticalLabelPosition=bottom;verticalAlign=top;html=1;outlineConnect=0;" vertex="1" parent="1">
          <mxGeometry x="230" y="390" width="30" height="60" as="geometry" />
        </mxCell>
        <mxCell id="hF7e7zSdiV1eWku3Py9b-6" value="undergraduate patrons" style="shape=umlActor;verticalLabelPosition=bottom;verticalAlign=top;html=1;outlineConnect=0;" vertex="1" parent="1">
          <mxGeometry x="360" y="390" width="30" height="60" as="geometry" />
        </mxCell>
        <mxCell id="hF7e7zSdiV1eWku3Py9b-10" value="" style="rounded=0;orthogonalLoop=1;jettySize=auto;html=1;endArrow=block;endFill=0;exitX=0.5;exitY=0;exitDx=0;exitDy=0;exitPerimeter=0;" edge="1" parent="1" source="hF7e7zSdiV1eWku3Py9b-5">
          <mxGeometry relative="1" as="geometry">
            <mxPoint x="160" y="414" as="sourcePoint" />
            <mxPoint x="265" y="320" as="targetPoint" />
          </mxGeometry>
        </mxCell>
        <mxCell id="hF7e7zSdiV1eWku3Py9b-11" value="" style="rounded=0;orthogonalLoop=1;jettySize=auto;html=1;entryX=1;entryY=1;entryDx=0;entryDy=0;entryPerimeter=0;endArrow=block;endFill=0;exitX=0.5;exitY=0;exitDx=0;exitDy=0;exitPerimeter=0;" edge="1" parent="1" source="hF7e7zSdiV1eWku3Py9b-6" target="hF7e7zSdiV1eWku3Py9b-1">
          <mxGeometry relative="1" as="geometry">
            <mxPoint x="170" y="424" as="sourcePoint" />
            <mxPoint x="270" y="320" as="targetPoint" />
          </mxGeometry>
        </mxCell>
      </root>
    </mxGraphModel>
  </diagram>
</mxfile>
